<?xml version="1.0" standalone="no"?>
<!DOCTYPE svg PUBLIC "-//W3C//DTD SVG 20010904//EN"
 "http://www.w3.org/TR/2001/REC-SVG-20010904/DTD/svg10.dtd">
<svg version="1.0" xmlns="http://www.w3.org/2000/svg"
 width="1920.000000pt" height="700.000000pt" viewBox="0 0 1920.000000 700.000000"
 preserveAspectRatio="xMidYMid meet">

<g transform="translate(0.000000,700.000000) scale(0.100000,-0.100000)"
fill="#000000" stroke="none">
<path d="M11896 6778 c-13 -18 -16 -56 -16 -205 l0 -183 -2393 0 c-1848 0
-2396 -3 -2405 -12 -9 -9 -12 -70 -12 -215 l0 -203 -1939 0 -1939 0 -6 83 c-3
45 -8 153 -11 241 -3 96 -9 164 -16 172 -7 9 -33 14 -74 14 l-62 0 -7 -46 c-3
-26 -6 -83 -6 -128 0 -45 -3 -138 -7 -208 l-6 -128 -131 0 c-72 0 -138 -5
-146 -10 -13 -8 -15 -214 -18 -1733 l-2 -1724 -947 -6 c-520 -4 -1128 -7
-1350 -7 l-403 0 0 -1240 0 -1240 9590 0 9590 0 0 1865 0 1865 -1347 -3
c-1279 -3 -1386 -5 -1570 -31 l-33 -5 0 1257 c0 691 -3 1274 -6 1294 l-7 38
-1586 2 -1586 3 -3 250 c-1 169 -6 253 -14 260 -8 7 -9 5 -5 -7 6 -17 -24 -18
-543 -18 -482 0 -550 2 -550 15 0 22 -17 18 -34 -7z m-8781 -555 c-4 -131 -8
-244 -10 -250 -3 -8 -22 -13 -49 -13 l-45 0 5 53 c2 28 7 141 10 250 l6 197
45 0 44 0 -6 -237z m8783 135 c-4 -10 -493 -14 -2394 -16 -1314 -1 -2395 0
-2402 3 -7 3 -10 9 -7 15 10 16 4808 14 4803 -2z m4312 -103 c0 -13 -183 -15
-1585 -15 -1402 0 -1585 2 -1585 15 0 13 183 15 1585 15 1402 0 1585 -2 1585
-15z m-8510 -330 c0 -13 -280 -15 -2487 -13 -1978 2 -2487 6 -2491 16 -3 9
499 12 2487 12 2209 0 2491 -2 2491 -15z m4470 -1775 l0 -260 -2587 2 -2588 3
-3 258 -2 257 2590 0 2590 0 0 -260z m-3450 -2070 c0 -367 -3 -560 -10 -560
-7 0 -10 193 -10 560 0 367 3 560 10 560 7 0 10 -193 10 -560z m350 -6 c0
-486 -2 -554 -15 -554 -13 0 -15 68 -15 553 0 305 3 557 6 560 4 4 11 4 15 1
5 -3 9 -255 9 -560z"/>
</g>
</svg>
